<?xml version="1.0" encoding="utf-8"?><svg version="1.1" id="Layer_1" xmlns="http://www.w3.org/2000/svg" xmlns:xlink="http://www.w3.org/1999/xlink" x="0px" y="0px" viewBox="0 0 122.88 114.45" style="enable-background:new 0 0 122.88 114.45" xml:space="preserve"><style type="text/css">.st0{fill-rule:evenodd;clip-rule:evenodd;}</style><g><path class="st0" d="M59.02,38.48h4.83c0.9,0,1.64,0.74,1.64,1.64v7.2h7.2c0.9,0,1.64,0.74,1.64,1.64v4.83 c0,0.9-0.74,1.64-1.64,1.64h-7.2v7.2c0,0.9-0.74,1.64-1.64,1.64h-4.83c-0.9,0-1.64-0.74-1.64-1.64v-7.2h-7.2 c-0.9,0-1.64-0.74-1.64-1.64v-4.83c0-0.9,0.74-1.64,1.64-1.64h7.2v-7.2C57.38,39.22,58.12,38.48,59.02,38.48L59.02,38.48z M110.8,107.88v4.48c0,1.16-0.94,2.09-2.09,2.09h-95.1c-1.16,0-2.09-0.94-2.09-2.09V58.91c-2.34,0.9-4.53,0.92-6.35,0.3 c-1.42-0.48-2.62-1.34-3.5-2.45c-0.88-1.11-1.44-2.46-1.61-3.95c-0.26-2.31,0.43-4.92,2.4-7.37l0,0c0.1-0.12,0.21-0.24,0.34-0.34 L59.85,0.55c0.74-0.68,1.88-0.75,2.7-0.11l57.19,44.46l0,0c0.09,0.07,0.17,0.14,0.25,0.23c2.65,2.85,3.31,6.01,2.67,8.69 c-0.32,1.32-0.95,2.5-1.82,3.48c-0.87,0.98-1.98,1.74-3.24,2.19c-2,0.72-4.38,0.7-6.79-0.44L110.8,107.88L110.8,107.88 L110.8,107.88z M5.57,48.23c-1.11,1.45-1.5,2.9-1.37,4.12c0.08,0.7,0.33,1.32,0.72,1.82c0.39,0.49,0.92,0.86,1.56,1.08 c1.09,0.37,2.5,0.27,4.11-0.49l49.79-37.88c0.77-0.59,1.82-0.56,2.55,0.01l0,0l48.37,37.6c0.02,0.02,0.04,0.04,0.07,0.05 c1.77,1.28,3.47,1.48,4.79,1.01c0.61-0.22,1.14-0.58,1.55-1.05c0.42-0.47,0.72-1.03,0.87-1.66c0.33-1.38-0.07-3.08-1.55-4.74 L61.27,4.74L5.57,48.23L5.57,48.23L5.57,48.23z M29.6,75.49h26.7c1.04,0,1.89,0.83,1.89,1.85v20.89c0,1.02-0.85,1.85-1.89,1.85 H29.6c-1.04,0-1.89-0.83-1.89-1.85V77.34C27.72,76.32,28.56,75.49,29.6,75.49L29.6,75.49z M67.73,73.64H92.8 c1.12,0,2.03,0.94,2.03,2.1v34.52h11.78V56.57c0-0.14,0.01-0.27,0.04-0.4L61.64,21.18L15.63,56.19c0.05,0.17,0.07,0.35,0.07,0.54 v53.53h50V75.74C65.7,74.58,66.61,73.64,67.73,73.64L67.73,73.64L67.73,73.64z M90.77,77.84h-21v32.38h21V77.84L90.77,77.84 L90.77,77.84z M54.41,89.63H44.5v6.75h9.91V89.63L54.41,89.63z M40.8,89.63h-9.31v6.75h9.31V89.63L40.8,89.63z M31.49,85.93h9.31 v-6.74h-9.31V85.93L31.49,85.93z M44.5,85.93h9.91v-6.74H44.5V85.93L44.5,85.93z"/></g></svg>